<?xml version="1.0" encoding="UTF-8" standalone="no"?>
<!-- Created with Inkscape (http://www.inkscape.org/) -->
<svg xmlns:dc="http://purl.org/dc/elements/1.1/" xmlns:cc="http://creativecommons.org/ns#" xmlns:rdf="http://www.w3.org/1999/02/22-rdf-syntax-ns#" xmlns:svg="http://www.w3.org/2000/svg" xmlns="http://www.w3.org/2000/svg" xmlns:sodipodi="http://sodipodi.sourceforge.net/DTD/sodipodi-0.dtd" xmlns:inkscape="http://www.inkscape.org/namespaces/inkscape" width="64" height="64" viewBox="0 0 64.000001 64.000001" id="svg9614" version="1.1" inkscape:version="0.91 r13725" sodipodi:docname="icon.svg">
  <defs id="defs9616"/>
  <sodipodi:namedview id="base" pagecolor="#ffffff" bordercolor="#666666" borderopacity="1.0" inkscape:pageopacity="0.0" inkscape:pageshadow="2" inkscape:zoom="5.6" inkscape:cx="71.626015" inkscape:cy="39.482625" inkscape:document-units="px" inkscape:current-layer="layer1" showgrid="false" units="px" showguides="true" inkscape:guide-bbox="true" inkscape:window-width="1366" inkscape:window-height="720" inkscape:window-x="0" inkscape:window-y="0" inkscape:window-maximized="1">
    <sodipodi:guide position="136.11806,63.89215" orientation="0,1" id="guide9672"/>
  </sodipodi:namedview>
  <metadata id="metadata9619">
    <rdf:RDF>
      <cc:Work rdf:about="">
        <dc:format>image/svg+xml</dc:format>
        <dc:type rdf:resource="http://purl.org/dc/dcmitype/StillImage"/>
        <dc:title/>
      </cc:Work>
    </rdf:RDF>
  </metadata>
  <g inkscape:label="Layer 1" inkscape:groupmode="layer" id="layer1" transform="translate(0,-988.36216)">
    <g id="text4269-8-3-5-36" style="font-style:normal;font-variant:normal;font-weight:900;font-stretch:normal;font-size:180px;line-height:125%;font-family:Orbitron;-inkscape-font-specification:'Orbitron Heavy';letter-spacing:-7px;word-spacing:0px;fill:#000000;fill-opacity:1;stroke:#000000;stroke-width:4;stroke-linecap:butt;stroke-linejoin:miter;stroke-miterlimit:4;stroke-dasharray:none;stroke-opacity:1" transform="matrix(0.29962695,0,0,0.29962695,-472.63748,603.91231)">
      <path id="path3703" style="fill:#000000;fill-opacity:1;stroke:#000000;stroke-width:4;stroke-linecap:butt;stroke-linejoin:miter;stroke-miterlimit:4;stroke-dasharray:none;stroke-opacity:1" d="m 1659.0045,1322.4544 0,34.2 -52.38,0 c -14.4,0 -26.1,11.88 -26.1,26.1 l 0,52.2 c 0,14.22 11.7,26.1 26.1,26.1 l 79.92,0 0,-138.6 z m -50.76,61.74 50.76,0 0,49.32 -50.76,0 z" inkscape:connector-curvature="0" sodipodi:nodetypes="ccsssscccccccc"/>
    </g>
    <path id="path3694" style="font-style:normal;font-variant:normal;font-weight:900;font-stretch:normal;font-size:97.85713959px;line-height:125%;font-family:Orbitron;-inkscape-font-specification:'Orbitron Heavy';letter-spacing:0px;word-spacing:0px;fill:#000000;fill-opacity:1;stroke:#000000;stroke-width:0.98556137;stroke-linecap:butt;stroke-linejoin:miter;stroke-miterlimit:4;stroke-dasharray:none;stroke-opacity:1" d="m 62.312003,1005.4855 c 0,-2.9621 -2.232281,-5.369 -4.979689,-5.369 l -13.359376,0 c -2.747408,0 -5.014036,2.4068 -5.014036,5.369 l 0,2.3698 5.254446,0 0,-2.0736 12.844223,0 0,4.7395 -8.803458,0 0,5.6653 9.730695,0 0,4.9246 -13.77146,0 0,-1.7771 -5.254446,0 0,2.0736 c 0,2.9251 2.266628,5.3687 5.014036,5.3687 l 14.28661,0 c 2.74744,0 4.979721,-2.4436 4.979721,-5.3687 l 0,-5.5174 c 0,-1.2959 -0.446464,-2.4806 -1.13333,-3.3695 0.137391,-0.5184 0.206064,-1.148 0.206064,-1.7032 z" inkscape:connector-curvature="0" sodipodi:nodetypes="ssssccccccccccccssssscss"/>
  </g>
</svg>